<svg xmlns="http://www.w3.org/2000/svg" viewBox="0 0 48.57 47.07" id="add-user"><path fill="#ffb703" d="M29.52 34.73a12.34 12.34 0 0 1-12.34 12.34h-4.84a12.33 12.33 0 0 1-8.73-3.61 12.34 12.34 0 0 1 8.73-21.07h4.84a12.34 12.34 0 0 1 12.34 12.35Z"></path><circle cx="14.76" cy="7.9" r="7.9" fill="#fb8500"></circle><path fill="#4361ee" d="M47.06 17.29h-18a1.5 1.5 0 1 1 0-3h18a1.5 1.5 0 0 1 0 3Z"></path><path fill="#4361ee" d="M38.07 26.29a1.5 1.5 0 0 1-1.5-1.5v-18a1.5 1.5 0 0 1 3 0v18a1.5 1.5 0 0 1-1.5 1.5Z"></path></svg>